# xmcd
#
# Track frame offsets:
#	150
#	15725
#	33132
#	46187
#	62410
#	68087
#	82995
#	101922
#	112190
#	116842
#
# Disc length: 1945 seconds
#
# Revision: 0
# Processed by: cddbd v1.4PL0 Copyright (c) Steve Scherf et al.
# Submitted via: audiograbber 1.81.02
#
DISCID=7d07970a
DTITLE=Krauthobel - Die Beschta Of D`r Wält
DYEAR=1994
DGENRE=Blues
TTITLE0=sayonara tante klara
TTITLE1=geliebtes muntafu
TTITLE2=wo dia zauberbluma blüan ...
TTITLE3=di beschta of d`r wält
TTITLE4=radio montafon - skätsch
TTITLE5=zulatta`s marie isch in kenja of safari
TTITLE6=trenk mr no`ch a fläschli wi
TTITLE7=ho`saladaboogie
TTITLE8=wo geht`s hier ins silbertal? (Originalversion)
TTITLE9=i ho`n di gära
EXTD=YEAR: 1994 ID3G: 0
EXTT0=
EXTT1=
EXTT2=
EXTT3=
EXTT4=
EXTT5=
EXTT6=
EXTT7=
EXTT8=
EXTT9=
PLAYORDER=
